<svg xmlns="http://www.w3.org/2000/svg" xmlns:xlink="http://www.w3.org/1999/xlink" width="500" zoomAndPan="magnify" viewBox="0 0 375 374.999991" height="500" preserveAspectRatio="xMidYMid meet" version="1.0"><path fill="#2563eb" d="M 117.1875 308.53125 C 111.621094 307.582031 106.089844 305.75 100.5625 302.964844 C 91.625 298.5 83.605469 290.257812 78.808594 280.628906 C 76.355469 275.757812 75.257812 272.535156 74.121094 267.039062 C 73.242188 262.828125 73.167969 261.878906 73.351562 256.347656 C 73.5 250.378906 74.265625 245.726562 75.585938 242.136719 C 75.878906 241.40625 76.207031 240.308594 76.355469 239.683594 C 76.757812 237.925781 80.054688 231.519531 82.324219 228.148438 C 83.460938 226.464844 85.984375 223.5 87.890625 221.519531 C 98.289062 210.972656 110.925781 205.847656 126.5625 205.808594 C 129.96875 205.808594 131.46875 205.664062 131.726562 205.371094 C 132.054688 204.929688 132.898438 189.734375 133.484375 174.316406 C 133.59375 171.386719 133.851562 165.234375 134.105469 160.65625 L 134.546875 152.308594 L 121.910156 139.671875 C 114.988281 132.75 109.167969 127.074219 108.949219 127.074219 C 108.765625 127.074219 104.957031 130.773438 100.523438 135.277344 L 92.46875 143.519531 L 88.621094 143.699219 C 86.5 143.8125 71.265625 143.847656 54.75 143.8125 C 25.453125 143.738281 24.683594 143.738281 23.472656 143.003906 C 20.179688 141.0625 20.03125 136.230469 23.179688 133.667969 L 24.316406 132.75 L 49.328125 132.640625 C 63.097656 132.605469 74.339844 132.421875 74.339844 132.273438 C 74.378906 131.507812 74.378906 78.113281 74.378906 77.746094 C 74.339844 77.378906 69.398438 77.269531 50.902344 77.269531 C 35.121094 77.269531 26.878906 77.125 25.597656 76.867188 C 24.351562 76.609375 23.253906 76.0625 22.414062 75.257812 C 21.242188 74.195312 21.09375 73.828125 20.984375 71.921875 C 20.800781 69.25 21.605469 67.457031 23.4375 66.578125 C 24.644531 65.953125 27.0625 65.917969 58.15625 65.917969 C 88.183594 65.917969 91.664062 65.992188 92.46875 66.503906 C 93.640625 67.273438 110.230469 84.117188 122.535156 97.046875 C 124.914062 99.574219 135.132812 109.9375 145.238281 120.117188 C 163.695312 138.683594 164.867188 140.039062 165.636719 143.1875 C 165.855469 144.03125 166.664062 160.179688 167.136719 172.667969 C 167.613281 185.046875 168.53125 204.929688 168.675781 205.371094 C 168.785156 205.738281 172.925781 205.808594 188.414062 205.738281 L 208.042969 205.628906 L 208.007812 193.871094 C 208.007812 182.957031 208.042969 181.96875 208.738281 179.664062 C 210.023438 175.523438 212.476562 172.742188 216.613281 170.652344 L 218.445312 169.738281 L 245.289062 169.628906 L 272.09375 169.519531 L 272.09375 147.179688 C 272.09375 126.269531 272.058594 124.839844 271.472656 124.621094 C 270.117188 124.109375 266.96875 121.507812 265.722656 119.898438 C 261.144531 113.929688 261.730469 104.734375 267.003906 99.644531 C 269.859375 96.863281 275.355469 94.957031 279.199219 95.398438 C 283.703125 95.910156 287.914062 98.363281 290.367188 101.953125 C 293.1875 106.089844 293.8125 111.804688 291.980469 116.308594 C 290.84375 119.089844 287.953125 122.3125 285.167969 123.960938 C 283.851562 124.730469 283.445312 125.171875 283.410156 125.902344 C 283.375 126.820312 283.410156 168.714844 283.445312 169.226562 C 283.445312 169.371094 286.632812 169.554688 290.515625 169.628906 C 298.972656 169.8125 300.21875 170.179688 303.84375 173.695312 C 307.984375 177.722656 308.496094 180.210938 308.277344 195.484375 L 308.167969 206.140625 L 309.8125 206.359375 C 314.683594 206.980469 320.945312 208.960938 325.707031 211.375 C 331.199219 214.125 334.605469 216.613281 339.292969 221.335938 C 341.859375 223.9375 345.703125 228.550781 345.703125 229.066406 C 345.703125 229.136719 346.253906 230.125 346.949219 231.1875 C 349.769531 235.582031 352.367188 242.722656 353.539062 249.242188 C 354.75 256.089844 354.089844 265.796875 351.890625 272.460938 C 350.683594 276.195312 348.742188 280.847656 348.082031 281.617188 C 347.789062 281.910156 347.425781 282.605469 347.242188 283.117188 C 345.738281 287.074219 337.390625 296.300781 332.152344 299.816406 C 326.039062 303.917969 320.324219 306.335938 312.5625 308.09375 C 308.933594 308.898438 308.53125 308.898438 282.164062 308.898438 C 256.019531 308.898438 255.394531 308.898438 254.441406 308.167969 C 253.089844 307.175781 251.953125 305.015625 251.953125 303.550781 C 251.953125 301.867188 253.34375 299.558594 254.882812 298.679688 C 256.128906 297.914062 256.785156 297.914062 283.082031 297.691406 L 309.996094 297.507812 L 313.183594 296.519531 C 326.257812 292.457031 336.21875 283.265625 340.539062 271.363281 C 342.445312 266.015625 342.515625 265.503906 342.699219 258.363281 C 342.808594 251.84375 342.773438 251.183594 341.894531 247.925781 C 340.210938 241.550781 338.707031 238.476562 334.789062 233.167969 C 331.492188 228.699219 328.527344 226.0625 322.265625 222.070312 C 320.066406 220.679688 314.90625 218.699219 311.058594 217.859375 L 307.433594 217.015625 L 216.980469 216.980469 C 167.25 216.941406 124.476562 217.054688 121.949219 217.199219 C 114.585938 217.601562 108.542969 219.691406 102.027344 224.046875 C 98.839844 226.171875 94.078125 230.859375 91.773438 234.117188 C 89.683594 237.085938 87.085938 242.542969 85.765625 246.644531 C 84.886719 249.390625 84.851562 250.046875 84.8125 257.445312 C 84.8125 264.660156 84.886719 265.503906 85.621094 267.589844 C 86.058594 268.835938 86.425781 270.042969 86.425781 270.261719 C 86.425781 270.738281 89.757812 277.585938 90.964844 279.601562 C 92.46875 282.09375 96.238281 286.230469 99.28125 288.683594 C 102.246094 291.101562 103.453125 291.871094 106.3125 293.261719 C 111.035156 295.53125 111.878906 295.863281 114.878906 296.742188 L 117.738281 297.546875 L 177.429688 297.730469 C 236.828125 297.914062 237.121094 297.914062 238.402344 298.679688 C 239.941406 299.558594 241.332031 301.867188 241.332031 303.515625 C 241.332031 305.238281 240.085938 307.398438 238.585938 308.3125 L 237.269531 309.082031 L 178.601562 309.046875 C 133.007812 309.007812 119.3125 308.898438 117.1875 308.53125 Z M 157.105469 203.539062 C 157.066406 199.546875 155.566406 162.597656 154.980469 151.609375 L 154.722656 146.667969 L 150.511719 146.777344 C 148.207031 146.851562 146.191406 147.035156 146.082031 147.144531 C 145.933594 147.289062 145.640625 152.269531 145.421875 158.203125 C 145.164062 164.136719 144.761719 174.023438 144.46875 180.175781 C 143.628906 197.863281 143.445312 204.601562 143.664062 205.222656 C 143.882812 205.738281 144.761719 205.808594 150.511719 205.808594 L 157.105469 205.808594 Z M 296.042969 205.003906 L 296.996094 204.164062 L 296.996094 195.007812 C 297.070312 182.042969 297.105469 182.921875 296.117188 181.785156 L 295.277344 180.761719 L 258.179688 180.796875 L 221.117188 180.835938 L 220.3125 181.605469 C 219.578125 182.371094 219.542969 182.703125 219.433594 193.324219 L 219.324219 204.273438 L 220.3125 205.042969 L 221.300781 205.808594 L 295.128906 205.808594 Z M 138.941406 137.511719 C 139.820312 136.816406 140.734375 136.230469 140.992188 136.230469 C 141.90625 136.230469 143.921875 135.351562 143.921875 134.984375 C 143.921875 134.765625 139.050781 129.75 133.117188 123.816406 L 122.3125 113.011719 L 119.75 115.539062 C 118.359375 116.96875 117.222656 118.359375 117.1875 118.652344 C 117.1875 119.203125 136.523438 138.757812 137.074219 138.792969 C 137.253906 138.792969 138.097656 138.207031 138.941406 137.511719 Z M 100.671875 118.980469 C 108.03125 111.511719 114.109375 105.210938 114.183594 104.957031 C 114.292969 104.441406 88.621094 77.855469 87.671875 77.488281 C 87.339844 77.378906 86.792969 77.269531 86.390625 77.269531 C 85.691406 77.269531 85.691406 77.894531 85.691406 104.917969 L 85.691406 132.566406 L 86.460938 132.566406 C 87.011719 132.566406 91.332031 128.429688 100.671875 118.980469 Z M 280.113281 117.1875 C 282.605469 116.492188 284.910156 113.195312 284.910156 110.375 C 284.910156 107.484375 282.128906 104.222656 279.234375 103.820312 C 276.121094 103.34375 273.484375 104.40625 271.839844 106.898438 C 271.179688 107.886719 270.996094 108.65625 270.996094 110.484375 C 270.996094 111.765625 271.214844 113.269531 271.507812 113.816406 C 273.046875 116.785156 276.671875 118.175781 280.113281 117.1875 Z M 280.113281 117.1875 " fill-opacity="1" fill-rule="nonzero"/><path fill="#2563eb" d="M 119.933594 290.589844 C 108.949219 287.769531 100.78125 281.066406 96.421875 271.363281 C 92.796875 263.34375 92.578125 252.539062 95.800781 244.996094 C 98.253906 239.320312 100.378906 236.207031 104.480469 232.324219 C 108.140625 228.84375 111.621094 226.867188 117.078125 225.109375 C 122.605469 223.316406 126.746094 223.023438 132.859375 223.9375 C 138.097656 224.707031 142.566406 226.429688 146.742188 229.285156 C 149.265625 231.003906 153.222656 234.886719 155.308594 237.707031 C 165.671875 251.695312 162.964844 272.71875 149.414062 283.59375 C 145.75 286.523438 144.25 287.4375 140.808594 288.832031 C 133.996094 291.613281 126.378906 292.273438 119.933594 290.589844 Z M 132.019531 282.859375 C 137.878906 282.203125 144.652344 278.027344 148.425781 272.71875 C 151.464844 268.433594 152.710938 265.101562 153.441406 259.496094 C 153.773438 256.824219 153.515625 254.515625 152.378906 250.121094 C 151.0625 244.886719 146.375 238.695312 141.320312 235.546875 C 136.707031 232.617188 133.152344 231.664062 127.257812 231.664062 C 123.523438 231.703125 122.425781 231.847656 120.007812 232.652344 C 115.613281 234.117188 112.574219 235.984375 109.3125 239.28125 C 106.933594 241.699219 106.054688 242.90625 104.664062 245.765625 C 99.167969 256.898438 101.84375 269.824219 111.21875 277.332031 C 115.320312 280.589844 118.980469 282.273438 123.597656 282.933594 C 126.820312 283.375 127.441406 283.375 132.019531 282.859375 Z M 132.019531 282.859375 " fill-opacity="1" fill-rule="nonzero"/><path fill="#2563eb" d="M 294.984375 291.246094 C 286.414062 289.453125 281.652344 287.074219 276.378906 282.019531 C 271.398438 277.257812 267.882812 270.996094 266.453125 264.402344 C 265.574219 260.230469 265.503906 257.007812 266.199219 252.429688 C 266.601562 249.828125 267.1875 247.230469 267.480469 246.644531 C 267.808594 246.019531 268.066406 245.359375 268.066406 245.140625 C 268.066406 244.480469 270.996094 239.097656 272.203125 237.488281 C 275.535156 233.09375 279.894531 229.394531 284.363281 227.125 C 288.132812 225.21875 290.222656 224.558594 294.25 223.902344 C 298.5 223.242188 301.316406 223.242188 305.53125 223.9375 C 308.605469 224.449219 310.398438 225 314.757812 226.867188 C 319.847656 229.027344 326.074219 234.742188 329.148438 239.976562 C 331.199219 243.53125 331.566406 244.480469 332.847656 249.023438 C 334.09375 253.675781 334.167969 261.109375 332.996094 265.722656 C 330.796875 274.253906 324.28125 282.824219 316.773438 287.035156 C 311.609375 289.929688 305.308594 291.539062 299.488281 291.46875 C 297.398438 291.429688 295.386719 291.355469 294.984375 291.246094 Z M 303.40625 282.933594 C 309.742188 282.09375 312.707031 280.515625 317.980469 275.207031 C 321.9375 271.253906 322.960938 269.675781 324.351562 265.613281 C 325.269531 263.011719 325.339844 262.28125 325.339844 257.078125 C 325.339844 252.0625 325.230469 251.148438 324.5 249.390625 C 320.945312 240.527344 315.417969 235.289062 306.703125 232.46875 C 304.652344 231.8125 303.296875 231.628906 299.925781 231.628906 C 295.09375 231.628906 293.113281 232.105469 288.207031 234.484375 C 285.71875 235.691406 284.507812 236.609375 281.800781 239.28125 C 276.671875 244.410156 274.4375 249.351562 274.035156 256.53125 C 273.742188 262.097656 275.097656 266.710938 278.613281 272.058594 C 283.007812 278.722656 290.296875 282.679688 299.378906 283.410156 C 299.597656 283.410156 301.390625 283.191406 303.40625 282.933594 Z M 303.40625 282.933594 " fill-opacity="1" fill-rule="nonzero"/></svg>